<svg id="Layer_1" data-name="Layer 1" xmlns="http://www.w3.org/2000/svg" viewBox="0 0 42 40"><defs><style>.cls-1{fill:#d2ab67;}</style></defs><title>downloadnoad</title><path class="cls-1" d="M31.55,20.93a1.09,1.09,0,0,0,0-1.56,1.07,1.07,0,0,0-1.55,0l-7.91,7.9V1.17A1.1,1.1,0,0,0,21,.06a1.11,1.11,0,0,0-1.11,1.11V27.27L12,19.37a1.1,1.1,0,0,0-1.56,1.56l9.78,9.78a1.12,1.12,0,0,0,1.56,0Zm7.75,7.16A1.08,1.08,0,0,1,40.4,27a1.1,1.1,0,0,1,1.11,1.09V38.83a1.11,1.11,0,0,1-1.11,1.1H1.59a1.1,1.1,0,0,1-1.1-1.1V28.09A1.08,1.08,0,0,1,1.59,27a1.09,1.09,0,0,1,1.1,1.09v9.65H39.3Zm0,0"/></svg>