<svg viewBox="0 0 1440 416" xmlns="http://www.w3.org/2000/svg"><path d="M255.2 148.6l4.9 10.7c7.6 16.4 11.5 34.3 11.5 52.3v12.1l-3.7 14.9c-.8 3.1-3.5 5.3-6.7 5.3l-3 12.1h82.9l-3-12.1c-3.2 0-5.9-2.2-6.7-5.3l-3.7-14.9v-12.1c0-18.1 3.9-35.9 11.5-52.3l4.9-10.7c10.8-23.5 16.4-49 16.4-74.9V35.6c0-4.4-3.5-7.9-7.9-7.9H246.7c-4.4 0-7.9 3.5-7.9 7.9v38.2c-.1 25.8 5.6 51.4 16.4 74.8z" fill="#9fd789"/><path d="M360.7 35.6v.7c-.2 15.4-6.1 30.7-17.8 42.4-23.8 23.8-62.4 23.8-86.2 0-11.9-11.9-17.8-27.5-17.8-43.1v-.4c.1-12.4 3.9-24.7 11.4-35.2h99c7.5 10.6 11.4 23.1 11.4 35.6z" fill="#231f20"/><path d="M337 56.9l-16 15.9c-2.4-2.4-5.9-3.2-9.1-2.1-13.1 4.5-28.1 1.6-38.6-8.8-9.3-9.3-12.6-22.3-10-34.2.3-1.5.7-2.9 1.2-4.4 1.1-3.2.2-6.7-2.2-9.1L276.7 0h4c1.2.6 2.6.9 3.9.9.9 0 1.9-.1 2.8-.5.5-.2.9-.3 1.4-.5h21.7c5.7 1.7 11 4.8 15.5 9.3 5.2 5.2 8.6 11.6 10.1 18.4 1.4 6.7 1 13.7-1.2 20.2-1.2 3.2-.3 6.7 2.1 9.1z" fill="#d52b27"/><path d="M257 165.9L147.3 275.6c-6.2 6.2-16.3 6.2-22.5 0l-71-71c-6.2-6.2-6.2-16.3 0-22.5L163.5 72.4c6.2-6.2 16.3-6.2 22.5 0l71 71c6.2 6.2 6.2 16.3 0 22.5z" fill="#9fd789"/><path d="M53.5 151.7L163.2 42c6.2-6.2 16.3-6.2 22.5 0l71 71c6.2 6.2 6.2 16.3 0 22.5L147 245.2c-6.2 6.2-16.3 6.2-22.5 0l-71-71c-6.2-6.2-6.2-16.3 0-22.5z" fill="#fff"/><path d="M246.6 120.9l-68.7-68.7c-1.9-1.9-4.9-1.9-6.8 0L125.3 98c-1.9 1.9-1.9 4.9 0 6.8l68.7 68.7c1.9 1.9 4.9 1.9 6.8 0l45.8-45.8c1.8-1.9 1.8-4.9 0-6.8z" fill="#e8f1d1"/><path d="M139.1 235.1l45.8-45.8c1.9-1.9 1.9-4.9 0-6.8l-68.7-68.7c-1.9-1.9-4.9-1.9-6.8 0l-45.8 45.8c-1.9 1.9-1.9 4.9 0 6.8l68.7 68.7c1.9 1.8 5 1.8 6.8 0z" fill="#7e4b35"/><path d="M134.7 230.6L68.1 164c-.6-.6-.6-1.5 0-2.1l43.7-43.7c.6-.6 1.6-.6 2.1 0l30.4 30.4c3.1 3.1 4.9 7.3 4.9 11.7v51c0 4.4-1.7 8.6-4.9 11.7l-7.5 7.5c-.6.7-1.5.7-2.1.1z" fill="#231f20"/><path d="M154.8 122c0-7.7 6.3-14 14-14 2.1 0 4 .4 5.8 1.3 3.3 1.5 7 .5 9.3-2.3 4.6-5.5 11.7-9 19.6-8.5 11.8.7 21.5 10.6 21.9 22.4.3 6.9-2.4 13.2-6.9 17.7-4.2 4.2-10.1 6.8-16.5 6.8-7.4 0-13.9-3.4-18.2-8.7-1-1.3-2.4-2.1-3.9-2.5-1.7-.5-3.6-.3-5.3.5-1.8.8-3.7 1.3-5.8 1.3-7.7-.1-14-6.3-14-14z" fill="#5fb146"/><path d="M179.9 134.2l11-11c3.4-3.4 8.8-3.4 12.2 0l15.4 15.4c-4.2 4.2-10.1 6.8-16.5 6.8-7.4 0-13.9-3.4-18.2-8.7-1.1-1.2-2.5-2.1-3.9-2.5z" fill="#3e9845"/><path d="M180.7 100.9c-2.7 2.7-7 2.7-9.7 0l-5-4.9c-5.5-5.5-5.4-14.4.3-19.8 5.2-4.9 13.7-4.9 18.9 0 5.7 5.3 5.8 14.3.3 19.8z" fill="#5fb146"/><path d="M180.7 100.9l4.9-4.9-5.9-5.9c-2.1-2.1-5.6-2.1-7.8 0L166 96l4.9 4.9c2.7 2.6 7.1 2.6 9.8 0z" fill="#3e9845"/></svg>